<svg width="48" height="48" viewBox="0 0 48 48" fill="none" xmlns="http://www.w3.org/2000/svg">
<rect width="48" height="48" rx="24" fill="black"/>
<g filter="url(#filter0_di_11883_13885)">
<path fill-rule="evenodd" clip-rule="evenodd" d="M21.9504 7.91355C23.2189 7.18116 24.7818 7.18116 26.0504 7.91355L36.9068 14.1815C38.1753 14.9139 38.9568 16.2674 38.9568 17.7322V30.2681C38.9568 31.7329 38.1753 33.0864 36.9068 33.8188L26.0504 40.0868C24.7818 40.8192 23.2189 40.8192 21.9504 40.0868L11.0939 33.8188C9.8254 33.0864 9.04395 31.7329 9.04395 30.2681V17.7322C9.04395 16.2674 9.8254 14.9139 11.0939 14.1815L21.9504 7.91355ZM24.9504 9.81881C24.3625 9.47941 23.6382 9.47941 23.0504 9.81881L12.1939 16.0868C11.6061 16.4262 11.2439 17.0534 11.2439 17.7322V30.2681C11.2439 30.9469 11.6061 31.5742 12.1939 31.9136L23.0504 38.1815C23.6382 38.5209 24.3625 38.5209 24.9504 38.1815L35.8068 31.9136C36.3946 31.5742 36.7568 30.9469 36.7568 30.2681V17.7322C36.7568 17.0534 36.3946 16.4262 35.8068 16.0868L24.9504 9.81881Z" fill="#E1401C"/>
</g>
<g filter="url(#filter1_f_11883_13885)">
<path d="M22.5 8.86603C23.4282 8.33013 24.5718 8.33013 25.5 8.86603L36.3564 15.134C37.2846 15.6699 37.8564 16.6603 37.8564 17.7321V30.2679C37.8564 31.3397 37.2846 32.3301 36.3564 32.866L25.5 39.134C24.5718 39.6699 23.4282 39.6699 22.5 39.134L11.6436 32.866C10.7154 32.3301 10.1436 31.3397 10.1436 30.2679V17.7321C10.1436 16.6603 10.7154 15.6699 11.6436 15.134L22.5 8.86603Z" stroke="#FFD500" stroke-width="1.3"/>
</g>
<defs>
<filter id="filter0_di_11883_13885" x="5.04395" y="3.36426" width="37.9131" height="41.272" filterUnits="userSpaceOnUse" color-interpolation-filters="sRGB">
<feFlood flood-opacity="0" result="BackgroundImageFix"/>
<feColorMatrix in="SourceAlpha" type="matrix" values="0 0 0 0 0 0 0 0 0 0 0 0 0 0 0 0 0 0 127 0" result="hardAlpha"/>
<feOffset/>
<feGaussianBlur stdDeviation="2"/>
<feComposite in2="hardAlpha" operator="out"/>
<feColorMatrix type="matrix" values="0 0 0 0 1 0 0 0 0 0.533333 0 0 0 0 0.203922 0 0 0 1 0"/>
<feBlend mode="normal" in2="BackgroundImageFix" result="effect1_dropShadow_11883_13885"/>
<feBlend mode="normal" in="SourceGraphic" in2="effect1_dropShadow_11883_13885" result="shape"/>
<feColorMatrix in="SourceAlpha" type="matrix" values="0 0 0 0 0 0 0 0 0 0 0 0 0 0 0 0 0 0 127 0" result="hardAlpha"/>
<feOffset dy="4"/>
<feGaussianBlur stdDeviation="2"/>
<feComposite in2="hardAlpha" operator="arithmetic" k2="-1" k3="1"/>
<feColorMatrix type="matrix" values="0 0 0 0 1 0 0 0 0 0.533333 0 0 0 0 0.203922 0 0 0 1 0"/>
<feBlend mode="normal" in2="shape" result="effect2_innerShadow_11883_13885"/>
</filter>
<filter id="filter1_f_11883_13885" x="8.49316" y="6.81396" width="31.0137" height="34.3721" filterUnits="userSpaceOnUse" color-interpolation-filters="sRGB">
<feFlood flood-opacity="0" result="BackgroundImageFix"/>
<feBlend mode="normal" in="SourceGraphic" in2="BackgroundImageFix" result="shape"/>
<feGaussianBlur stdDeviation="0.5" result="effect1_foregroundBlur_11883_13885"/>
</filter>
</defs>
</svg>
