<svg width="48" height="48" viewBox="0 0 48 48" fill="none" xmlns="http://www.w3.org/2000/svg">
<circle cx="24" cy="24" r="24" fill="white"/>
<path fill-rule="evenodd" clip-rule="evenodd" d="M21.1402 0.094388C20.1516 0.205993 18.3457 0.573915 17.3061 0.875529C8.0035 3.5745 1.13449 11.724 0.095498 21.2943C-0.0318327 22.4668 -0.0318327 25.5218 0.095498 26.6943C1.2967 37.7585 10.2391 46.703 21.3006 47.9045C22.4729 48.0318 25.5271 48.0318 26.6994 47.9045C37.7609 46.703 46.7033 37.7585 47.9045 26.6943C48.0318 25.5218 48.0318 22.4668 47.9045 21.2943C46.7033 10.2301 37.7609 1.28556 26.6994 0.0840716C25.6242 -0.0327855 22.2099 -0.026408 21.1402 0.094388ZM19.8981 8.07105C20.9968 8.58209 21.994 9.82635 22.6253 11.4739C23.214 13.01 23.4918 14.4719 23.7749 17.5231C23.9198 19.0852 23.9523 19.2936 24.0364 19.2034C24.0564 19.1818 24.1414 18.4257 24.2251 17.5231C24.5082 14.4719 24.786 13.01 25.3747 11.4739C26.6354 8.18397 28.9154 7.00471 31.5592 8.27513C32.7262 8.83587 33.5308 9.81115 33.9662 11.1925C34.1408 11.7463 34.1727 12.0617 34.1701 13.2089C34.1667 14.7866 34.068 15.2569 33.0519 18.5435C32.711 19.6464 32.444 20.5571 32.4588 20.5673C32.4735 20.5775 32.7785 20.7444 33.1366 20.9383C36.9602 23.0089 39.0278 26.7144 38.5368 30.6165C37.8667 35.9418 33.8029 39.3726 27.0942 40.2766C25.5124 40.4897 22.4876 40.4897 20.9058 40.2766C14.195 39.3723 10.1335 35.9436 9.46321 30.6165C8.97217 26.7144 11.0398 23.0089 14.8634 20.9383C15.2215 20.7444 15.5265 20.5775 15.5412 20.5673C15.556 20.5571 15.289 19.6464 14.9481 18.5435C13.932 15.2569 13.8333 14.7866 13.8299 13.2089C13.8273 12.0617 13.8592 11.7463 14.0338 11.1925C14.5702 9.49069 15.7063 8.3722 17.3686 7.90927C18.1371 7.69516 19.2421 7.76587 19.8981 8.07105ZM23.3478 29.5091C23.1541 29.7028 23.0669 29.9061 23.0157 30.2828C22.9269 30.9367 22.6509 31.48 22.3492 31.5947C22.0206 31.7197 22.015 31.7184 21.5528 31.405C21.1095 31.1045 20.7783 31.056 20.3875 31.2341C19.9106 31.4514 19.7263 32.1802 20.0356 32.6251C20.7607 33.6682 22.3657 33.9248 23.5546 33.1877L24 32.9117L24.4454 33.1883C26.1219 34.2294 28.6868 33.113 28.0135 31.6352C27.7788 31.1198 27.0137 30.9661 26.5623 31.3436C25.7893 31.99 25.2206 31.6193 25.0228 30.3404C24.9519 29.8826 24.8748 29.7084 24.6527 29.5042C24.2593 29.1426 23.7121 29.1447 23.3478 29.5091Z" fill="url(#paint0_linear_11356_13825)"/>
<defs>
<linearGradient id="paint0_linear_11356_13825" x1="44.5" y1="11.5" x2="8" y2="41.5" gradientUnits="userSpaceOnUse">
<stop stop-color="#00DBC4"/>
<stop offset="1" stop-color="#9A98FE"/>
</linearGradient>
</defs>
</svg>
