<svg width="48" height="48" viewBox="0 0 48 48" fill="none" xmlns="http://www.w3.org/2000/svg">
<rect width="48" height="48" rx="24" fill="#F2F2F2"/>
<path d="M12.5752 12.9175H35.0819V35.0074H12.5752L12.5752 12.9175Z" fill="#E0E6CC"/>
<path fill-rule="evenodd" clip-rule="evenodd" d="M33.344 37.8535C33.0313 38.1661 32.6073 38.3418 32.1651 38.3418L15.9103 38.3418C15.4955 38.3418 15.0957 38.1872 14.7888 37.9082L10.2582 33.5866C10.0933 33.4293 10 33.2114 10 32.9834L10 30.4228L12.9926 30.4228L12.9926 31.2564L16.5548 35.0075L31.4746 35.0075L35.0827 31.3994L35.0827 23.7541C35.0827 23.5239 35.2693 23.3373 35.4995 23.3373L37.5832 23.3373C37.8134 23.3373 38 23.5239 38 23.7541L38 32.5067C38 32.9489 37.8244 33.3729 37.5117 33.6856L33.344 37.8535Z" fill="url(#paint0_linear_12706_13824)"/>
<path fill-rule="evenodd" clip-rule="evenodd" d="M14.7306 10.4883C15.0433 10.1756 15.4674 10 15.9095 10H32.1643C32.5791 10 32.9789 10.1546 33.2858 10.4336L37.5621 14.3211C37.7324 14.4759 37.745 14.7395 37.5901 14.9099L35.908 16.7603C35.7531 16.9306 35.4895 16.9431 35.3192 16.7883L31.5198 13.3343H16.6001L12.992 16.9424V31.2563L10.0029 32.9235V15.9066C10.0029 15.4644 10.1786 15.0404 10.4912 14.7277L14.7306 10.4883Z" fill="url(#paint1_linear_12706_13824)"/>
<circle cx="20.4199" cy="25.4214" r="2.08395" fill="#1A1A26"/>
<circle cx="28.7558" cy="25.4214" r="2.08395" fill="#1A1A26"/>
<defs>
<linearGradient id="paint0_linear_12706_13824" x1="21.2535" y1="38.3418" x2="34.174" y2="21.6702" gradientUnits="userSpaceOnUse">
<stop stop-color="#E7C751"/>
<stop offset="1" stop-color="#F17164"/>
</linearGradient>
<linearGradient id="paint1_linear_12706_13824" x1="32.0896" y1="11.2504" x2="16.2515" y2="34.1739" gradientUnits="userSpaceOnUse">
<stop stop-color="#684BFC"/>
<stop offset="0.348637" stop-color="#4663EB"/>
<stop offset="0.696096" stop-color="#1AD8C0"/>
<stop offset="1" stop-color="#20D4C5"/>
</linearGradient>
</defs>
</svg>
