<svg width="48" height="48" viewBox="0 0 48 48" fill="none" xmlns="http://www.w3.org/2000/svg">
<circle cx="24" cy="24" r="24" fill="black"/>
<path fill-rule="evenodd" clip-rule="evenodd" d="M24.183 39.3735C32.559 39.3735 39.369 32.5605 39.369 24.186C39.369 22.4775 39.0855 20.838 38.565 19.308C38.5401 19.2301 38.513 19.1536 38.4862 19.0781C38.4743 19.0446 38.4625 19.0112 38.451 18.978C38.3075 18.741 38.0786 18.568 37.8114 18.4946C37.5442 18.4213 37.259 18.4531 37.0146 18.5836C36.7702 18.7141 36.5851 18.9333 36.4973 19.1961C36.4096 19.4589 36.4259 19.7454 36.543 19.9965C37.0015 21.3456 37.2346 22.7611 37.233 24.186C37.233 31.3815 31.3785 37.2345 24.183 37.2345C16.9905 37.2345 11.133 31.3815 11.133 24.186C11.133 16.992 16.9905 11.1375 24.183 11.1375C27.0372 11.1352 29.8127 12.073 32.0805 13.806L32.0835 13.8075C32.202 13.8985 32.3185 13.992 32.433 14.088C32.6686 14.2015 32.9372 14.2261 33.1895 14.1573C33.4418 14.0884 33.6607 13.9307 33.8059 13.7132C33.951 13.4956 34.0128 13.233 33.9796 12.9736C33.9465 12.7142 33.8207 12.4755 33.6255 12.3015C30.9441 10.1608 27.6141 8.99649 24.183 9.00001C15.81 9.00001 9 15.813 9 24.186C9 32.5605 15.81 39.3735 24.183 39.3735ZM20.6204 30.4817C20.7631 30.4629 20.9007 30.4162 21.0254 30.3441V30.3426C21.2768 30.1974 21.4602 29.9582 21.5353 29.6778C21.6104 29.3974 21.571 29.0986 21.4259 28.8471L16.0964 19.6161C15.9512 19.3645 15.712 19.1809 15.4314 19.1056C15.1508 19.0304 14.8518 19.0697 14.6001 19.2149C14.3485 19.3601 14.1649 19.5993 14.0896 19.8799C14.0144 20.1605 14.0537 20.4595 14.1989 20.7111L19.5284 29.9421C19.6002 30.0669 19.6959 30.1763 19.81 30.2641C19.9242 30.3519 20.0545 30.4162 20.1935 30.4536C20.3326 30.4909 20.4776 30.5005 20.6204 30.4817ZM37.0154 16.0746L39.2729 12.1626L39.2744 12.1611C39.35 12.0365 39.4 11.898 39.4214 11.7538C39.4428 11.6096 39.4352 11.4625 39.399 11.3213C39.3628 11.18 39.2988 11.0475 39.2107 10.9313C39.1226 10.8151 39.0122 10.7177 38.8859 10.6448C38.7596 10.5719 38.6201 10.5249 38.4755 10.5067C38.3308 10.4884 38.184 10.4992 38.0436 10.5385C37.9031 10.5777 37.772 10.6446 37.6577 10.7352C37.5435 10.8258 37.4485 10.9383 37.3784 11.0661L35.5874 14.1681L34.4474 16.1391L28.0574 27.2091L23.6594 19.5921C23.5892 19.4643 23.4943 19.3518 23.38 19.2612C23.2658 19.1706 23.1346 19.1037 22.9942 19.0645C22.8538 19.0252 22.707 19.0144 22.5623 19.0327C22.4177 19.0509 22.2781 19.0979 22.1519 19.1708C22.0256 19.2437 21.9152 19.3411 21.8271 19.4573C21.739 19.5735 21.675 19.706 21.6388 19.8473C21.6026 19.9885 21.595 20.1356 21.6164 20.2798C21.6378 20.424 21.6878 20.5625 21.7634 20.6871L27.0929 29.9181C27.1922 30.0895 27.3364 30.2306 27.5099 30.3261C27.534 30.3417 27.559 30.3557 27.5849 30.3681L27.5924 30.3711C27.8412 30.4911 28.1261 30.5126 28.3901 30.4314C28.6541 30.3502 28.8776 30.1722 29.0159 29.9331L35.7824 18.2121L37.0154 16.0746Z" fill="white"/>
</svg>
