<svg width="48" height="48" viewBox="0 0 48 48" fill="none" xmlns="http://www.w3.org/2000/svg">
<rect width="48" height="48" rx="24" fill="url(#paint0_linear_8796_9271)"/>
<path fill-rule="evenodd" clip-rule="evenodd" d="M15.2259 16.6454C19.4708 11.69 26.9291 11.1139 31.8845 15.3588L34.4867 12.3209C27.8535 6.63892 17.8701 7.40999 12.1881 14.0432C6.50611 20.6763 7.27717 30.6597 13.9103 36.3418C20.5435 42.0238 30.5269 41.2527 36.2089 34.6195L33.1711 32.0173C28.9263 36.9727 21.468 37.5488 16.5126 33.3039C11.5571 29.0591 10.9811 21.6008 15.2259 16.6454ZM35.9999 19C35.9999 17.8955 36.8954 17 37.9999 17C39.1045 17 39.9999 17.8955 39.9999 19C39.9999 20.1046 39.1045 21 37.9999 21C36.8954 21 35.9999 20.1046 35.9999 19ZM37.9999 23C40.2091 23 41.9999 21.2092 41.9999 19C41.9999 16.7909 40.2091 15 37.9999 15C35.7908 15 33.9999 16.7909 33.9999 19C33.9999 21.2092 35.7908 23 37.9999 23Z" fill="#F2F2F1"/>
<defs>
<linearGradient id="paint0_linear_8796_9271" x1="24" y1="8.64267e-07" x2="-5" y2="43" gradientUnits="userSpaceOnUse">
<stop stop-color="#F7B757"/>
<stop offset="1" stop-color="#F47C29"/>
</linearGradient>
</defs>
</svg>
