<svg width="48" height="48" viewBox="0 0 48 48" fill="none" xmlns="http://www.w3.org/2000/svg">
<path d="M24.009 1C18.7668 0.997448 13.668 2.71932 9.49181 5.90246C5.31567 9.08559 2.29202 13.5549 0.883029 18.6271C-0.525951 23.6994 -0.242748 29.0956 1.68935 33.9909C3.62146 38.8861 7.09615 43.0112 11.5823 45.7356C12.4953 46.2922 13.5428 46.5864 14.6108 46.5864H14.689C15.4693 46.5907 16.2427 46.4396 16.9644 46.1416C17.6861 45.8436 18.3418 45.4048 18.8936 44.8505C19.4453 44.2963 19.8821 43.6374 20.1788 42.9126C20.4754 42.1876 20.6259 41.4107 20.6216 40.6268V29.6463C20.6205 29.5853 20.5958 29.5273 20.5529 29.4843C20.51 29.4411 20.4522 29.4164 20.3915 29.4152H16.7832C16.3293 29.432 15.8768 29.3569 15.4526 29.194C15.0284 29.0311 14.6412 28.784 14.3142 28.4675C13.9872 28.1508 13.7271 27.7715 13.5495 27.3516C13.3718 26.9317 13.2803 26.4802 13.2803 26.0241C13.2803 25.5677 13.3718 25.1164 13.5495 24.6965C13.7271 24.2766 13.9872 23.8971 14.3142 23.5805C14.6412 23.2639 15.0284 23.0168 15.4526 22.854C15.8768 22.6911 16.3293 22.6159 16.7832 22.6328H31.2119C31.6659 22.6159 32.1184 22.6911 32.5426 22.854C32.9668 23.0168 33.354 23.2639 33.681 23.5805C34.0081 23.8971 34.2681 24.2766 34.4457 24.6965C34.6232 25.1164 34.7149 25.5677 34.7149 26.0241C34.7149 26.4802 34.6232 26.9317 34.4457 27.3516C34.2681 27.7715 34.0081 28.1508 33.681 28.4675C33.354 28.784 32.9668 29.0311 32.5426 29.194C32.1184 29.3569 31.6659 29.432 31.2119 29.4152H27.6128C27.5521 29.4164 27.4942 29.4411 27.4515 29.4843C27.4086 29.5273 27.3839 29.5853 27.3827 29.6463V40.6268C27.3937 42.2082 28.0245 43.7214 29.1382 44.8385C30.2522 45.9559 31.7597 46.5871 33.3339 46.5958H33.4121C34.4817 46.595 35.5302 46.2956 36.4405 45.7311C40.9199 43.0038 44.3883 38.8792 46.3159 33.9868C48.2435 29.0942 48.5247 23.7025 47.1166 18.6345C45.7082 13.5664 42.688 9.10049 38.5166 5.91808C34.3452 2.7357 29.2517 1.01171 24.0136 1.00926L24.009 1ZM6.97984 29.8775C6.22027 29.8785 5.4775 29.653 4.84555 29.2297C4.21361 28.8063 3.72091 28.204 3.42981 27.4994C3.13873 26.7947 3.06231 26.019 3.21027 25.2704C3.35824 24.5221 3.72394 23.8347 4.26102 23.2952C4.79812 22.7556 5.48249 22.3883 6.22752 22.2397C6.97254 22.091 7.7447 22.1678 8.44628 22.4602C9.14785 22.7526 9.74731 23.2475 10.1687 23.8823C10.5902 24.5171 10.8146 25.2632 10.8137 26.0262C10.8113 27.0438 10.4092 28.0191 9.69465 28.7403C8.98017 29.4615 8.0111 29.8701 6.99824 29.8775H6.97984ZM24.009 18.4024C22.831 18.4033 21.6791 18.0532 20.6991 17.3964C19.7191 16.7395 18.955 15.8055 18.5035 14.7124C18.0521 13.6193 17.9335 12.4162 18.1627 11.2554C18.392 10.0946 18.9589 9.02815 19.7916 8.19099C20.6243 7.35386 21.6855 6.78359 22.8409 6.5524C23.9963 6.32118 25.1941 6.43935 26.2826 6.89202C27.3712 7.34472 28.3014 8.11153 28.9561 9.09547C29.6107 10.0794 29.9602 11.2362 29.9602 12.4197C29.9504 14.0017 29.3203 15.5162 28.2061 16.6345C27.0921 17.7527 25.5839 18.3846 24.009 18.3931V18.4024ZM40.9693 29.8775C40.21 29.8775 39.4676 29.6513 38.8364 29.2273C38.2049 28.8034 37.713 28.2009 37.4225 27.4963C37.1322 26.7913 37.0564 26.0159 37.2049 25.2678C37.3534 24.5196 37.7195 23.8326 38.2567 23.2935C38.7939 22.7545 39.4784 22.3876 40.2232 22.2393C40.9681 22.0911 41.7402 22.1681 42.4415 22.4606C43.1429 22.7532 43.742 23.2481 44.163 23.8828C44.5843 24.5175 44.8087 25.2635 44.8077 26.0262C44.8053 27.0478 44.4001 28.0267 43.6805 28.7484C42.961 29.4704 41.9862 29.8763 40.9693 29.8775Z" fill="black"/>
</svg>
