<svg width="48" height="48" viewBox="0 0 48 48" fill="none" xmlns="http://www.w3.org/2000/svg">
<circle cx="24" cy="24" r="24" fill="#ADFF00"/>
<path fill-rule="evenodd" clip-rule="evenodd" d="M21.4074 23.6291V23.1963C22.0426 22.6208 22.4431 21.7866 22.4431 20.8569V17.0594C22.4431 14.8176 20.6439 13 18.4246 13H10V34.9993H19.8519C22.1431 34.9993 24 33.1235 24 30.809V27.1424C24 25.4814 22.9066 24.0802 21.4074 23.6291V23.6291ZM13.1111 16.1434H17.7778C18.6366 16.1434 19.3333 16.8473 19.3333 17.7148V20.8576C19.3333 21.7251 18.6366 22.4289 17.7778 22.4289H13.1111V16.1434ZM20.8889 30.2859C20.8889 31.1534 20.1921 31.8572 19.3333 31.8572H13.1111V25.5717H19.3333C20.1921 25.5717 20.8889 26.2756 20.8889 27.1431V30.2859ZM28.6667 13.0007H25.5556V16.1434H28.6667V13.0007ZM38 19.2862V22.4289H34.8889V31.8572H38V35H31.7778V22.4289H28.6667V35H25.5556V19.2862H31.7778V13.0007H34.8889V19.2862H38Z" fill="black"/>
</svg>
